<?xml version="1.0" encoding="UTF-8" standalone="no"?>
<svg
   xmlns:dc="http://purl.org/dc/elements/1.1/"
   xmlns:cc="http://creativecommons.org/ns#"
   xmlns:rdf="http://www.w3.org/1999/02/22-rdf-syntax-ns#"
   xmlns:svg="http://www.w3.org/2000/svg"
   xmlns="http://www.w3.org/2000/svg"
   xmlns:sodipodi="http://sodipodi.sourceforge.net/DTD/sodipodi-0.dtd"
   xmlns:inkscape="http://www.inkscape.org/namespaces/inkscape"
   inkscape:export-ydpi="300"
   inkscape:export-xdpi="300"
   inkscape:export-filename="/Users/skarzynskimw/faes-biof/syllabus/media/faes300.png"
   inkscape:version="1.1-dev (f9311a1, 2019-12-25)"
   sodipodi:docname="faes.svg"
   viewBox="0 0 318.72 156.16"
   height="156.16"
   width="318.72"
   id="svg22"
   version="1.1">
  <metadata
     id="metadata28">
    <rdf:RDF>
      <cc:Work
         rdf:about="">
        <dc:format>image/svg+xml</dc:format>
        <dc:type
           rdf:resource="http://purl.org/dc/dcmitype/StillImage" />
        <dc:title></dc:title>
      </cc:Work>
    </rdf:RDF>
  </metadata>
  <defs
     id="defs26" />
  <sodipodi:namedview
     inkscape:current-layer="g30"
     inkscape:window-maximized="1"
     inkscape:window-y="0"
     inkscape:window-x="0"
     inkscape:cy="198.94351"
     inkscape:cx="122.46679"
     inkscape:zoom="1.9290205"
     showgrid="false"
     id="namedview24"
     inkscape:window-height="1028"
     inkscape:window-width="1680"
     inkscape:pageshadow="2"
     inkscape:pageopacity="0"
     guidetolerance="10"
     gridtolerance="10"
     objecttolerance="10"
     borderopacity="1"
     inkscape:document-rotation="0"
     bordercolor="#666666"
     pagecolor="#ffffff" />
  <g
     id="g30"
     inkscape:label="Image"
     inkscape:groupmode="layer">
    <g
       transform="translate(3.3537753,-303.83978)"
       id="g138">
      <path
         style="fill:#71823d;fill-opacity:1;stroke-width:0.64"
         d="m 7.9202841,450.81242 c -2.783676,0.10491 -4.96,-0.0757 -4.96,-0.41153 0,-0.32914 0.432,-0.76422 0.96,-0.96683 0.694134,-0.26636 0.96,-1.35436 0.96,-3.92856 0,-2.5742 -0.265866,-3.6622 -0.96,-3.92856 -0.528,-0.20261 -0.96,-0.62557 -0.96,-0.93991 0,-0.31434 2.16,-0.57153 4.8,-0.57153 4.6933329,0 4.7999999,0.0356 4.7999999,1.6 0,0.88 -0.257187,1.6 -0.571527,1.6 -0.31434,0 -0.737301,-0.432 -0.939914,-0.96 -0.202613,-0.528 -1.0974259,-0.96 -1.9884729,-0.96 -1.301425,0 -1.620086,0.31471 -1.620086,1.6 0,0.88 0.297039,1.6 0.660086,1.6 0.363047,0 0.82586,-0.432 1.028473,-0.96 0.202613,-0.528 0.625574,-0.96 0.9399139,-0.96 0.31434,0 0.571527,1.152 0.571527,2.56 0,1.408 -0.288,2.56 -0.64,2.56 -0.3519999,0 -0.6399999,-0.432 -0.6399999,-0.96 0,-0.528 -0.432,-0.96 -0.96,-0.96 -0.585888,0 -0.96,0.59684 -0.96,1.53153 0,0.84234 0.472573,1.71287 1.050161,1.93451 0.577589,0.22164 1.5855889,0.23304 2.2399999,0.0254 0.654412,-0.20771 1.189839,-0.64624 1.189839,-0.97452 0,-0.32827 0.308031,-0.59687 0.684513,-0.59687 0.376482,0 0.592482,0.648 0.48,1.44 -0.189266,1.33265 -0.574285,1.45393 -5.1645129,1.62692 z m 12.2729899,0.027 c -2.775585,0.15686 -4.43299,0.004 -4.43299,-0.40837 0,-0.36239 0.340423,-0.77237 0.756495,-0.91106 0.480591,-0.1602 0.728503,-1.63367 0.679745,-4.04008 -0.04221,-2.08336 -0.382636,-3.88988 -0.756495,-4.0145 -0.37386,-0.12461 -0.679745,-0.49058 -0.679745,-0.81324 0,-0.32267 1.714449,-0.58667 3.809886,-0.58667 2.095438,0 4.523972,0.32536 5.396743,0.72302 0.872772,0.39766 1.910923,1.50538 2.307003,2.46161 0.39608,0.95621 0.533644,2.48166 0.305697,3.38987 -0.227946,0.90821 -0.985701,2.16827 -1.683899,2.80014 -0.887008,0.80272 -2.604958,1.22429 -5.70244,1.39932 z m 1.51901,-1.81392 c 0.8096,0 1.8176,-0.3456 2.24,-0.768 0.4224,-0.4224 0.76359,-1.6464 0.7582,-2.72 -0.0054,-1.0736 -0.224275,-2.28916 -0.486411,-2.70126 -0.262136,-0.41209 -1.265726,-0.94731 -2.2302,-1.18938 l -1.753589,-0.44012 v 3.90938 c 0,3.65269 0.09665,3.90938 1.472,3.90938 z m 14.857424,1.92 c -1.690299,0 -3.196147,-0.39815 -3.803709,-1.00572 -0.668689,-0.66868 -1.005715,-2.17671 -1.005715,-4.50008 0,-2.51572 -0.268864,-3.59755 -0.96,-3.86276 -0.528,-0.20261 -0.96,-0.62557 -0.96,-0.93991 0,-0.31434 1.44,-0.57153 3.2,-0.57153 1.76,0 3.2,0.288 3.2,0.64 0,0.352 -0.432,0.64 -0.96,0.64 -0.736221,0 -0.96,0.81528 -0.96,3.49748 0,2.6807 0.261562,3.63455 1.12,4.08438 0.637866,0.33424 1.739886,0.35282 2.56,0.0431 1.237629,-0.46733 1.44,-1.00893 1.44,-3.85382 0,-2.40189 -0.307292,-3.54334 -1.12,-4.16026 -0.978659,-0.74292 -0.716168,-0.85021 2.08,-0.85021 2.796168,0 3.058659,0.10729 2.08,0.85021 -0.799553,0.60694 -1.12,1.75061 -1.12,3.99724 0,1.8125 -0.42249,3.75022 -0.996291,4.56944 -0.771201,1.10105 -1.628432,1.42241 -3.794285,1.42241 z m 15.357796,-0.11999 c -3.039148,0.16664 -3.729483,-0.0241 -5.12,-1.41461 -0.883971,-0.88397 -1.640385,-2.12431 -1.680919,-2.75631 -0.04053,-0.632 -0.0183,-1.72509 0.04941,-2.42909 0.06771,-0.704 0.782845,-1.95543 1.589195,-2.78095 1.009124,-1.03312 2.140747,-1.47963 3.630595,-1.43253 1.190477,0.0376 2.812504,0.12677 3.604504,0.19809 1.174849,0.1058 1.44,0.51688 1.44,2.23254 -3e-6,1.15657 -0.21971,2.10285 -0.488241,2.10285 -0.268531,0 -0.772531,-0.648 -1.12,-1.44 -0.433405,-0.98788 -1.284959,-1.50298 -2.712174,-1.64058 -1.745899,-0.16833 -2.183253,0.0699 -2.72,1.48166 -0.351774,0.92524 -0.639588,2.33886 -0.639588,3.14139 0,0.80253 0.564395,1.96991 1.254211,2.59419 0.853396,0.77231 1.773774,1.00465 2.88,0.727 0.894184,-0.22443 1.625789,-0.63551 1.625789,-0.91353 0,-0.27801 0.42284,-1.06453 0.939646,-1.74781 0.877125,-1.15966 0.941,-1.07174 0.96,1.32138 l 0.02035,2.56369 z m 7.99278,0.11999 c -1.408,0 -2.56,-0.288 -2.56,-0.64 0,-0.352 0.393111,-0.64 0.87358,-0.64 0.48047,0 1.819559,-2.16963 2.975754,-4.82141 1.156196,-2.65177 2.338109,-4.96722 2.62648,-5.14544 0.288372,-0.17823 1.688493,1.99141 3.111392,4.8214 1.422893,2.83 2.871866,5.14545 3.219936,5.14545 0.348071,0 0.632858,0.288 0.632858,0.64 0,0.352 -1.44,0.64 -3.2,0.64 -1.76,0 -3.2,-0.288 -3.2,-0.64 0,-0.352 0.30912,-0.64 0.686925,-0.64 0.377811,0 0.593811,-0.47679 0.48,-1.05953 -0.113805,-0.58275 -0.694106,-1.1308 -1.289549,-1.21789 -0.595443,-0.0871 -1.603443,0.26379 -2.24,0.77974 -0.835243,0.67699 -0.934711,1.03081 -0.357376,1.27122 0.44,0.18322 0.8,0.59713 0.8,0.91979 0,0.32267 -1.152,0.58667 -2.56,0.58667 z m 4.380531,-4.80719 c 0.141677,-0.14169 0.06253,-0.76596 -0.175897,-1.38727 -0.364276,-0.94929 -0.524788,-0.98194 -1.00528,-0.2045 -0.363456,0.58809 -0.299373,1.09354 0.175897,1.38727 0.411226,0.25415 0.863597,0.34617 1.00528,0.2045 z m 12.259469,4.80719 c -1.76,0 -3.2,-0.25719 -3.2,-0.57153 0,-0.31434 0.432,-0.7373 0.96,-0.93991 0.706502,-0.27111 0.96,-1.38768 0.96,-4.22848 0,-3.66988 -0.07727,-3.86008 -1.568198,-3.86008 -0.862509,0 -1.848909,0.5016 -2.192,1.11467 -0.343092,0.61307 -0.815693,0.92277 -1.050234,0.68823 -0.234541,-0.23454 -0.236736,-1.02414 -0.0051,-1.75467 0.384672,-1.21199 0.91536,-1.32823 6.063795,-1.32823 5.103047,0 5.674195,0.12226 5.976787,1.27936 0.184007,0.70365 0.103776,1.422 -0.178297,1.59633 -0.282067,0.17433 -0.677991,-0.11339 -0.879827,-0.63936 -0.201614,-0.52598 -1.09579,-0.95633 -1.986843,-0.95633 -1.554374,0 -1.620083,0.15656 -1.620083,3.86008 0,2.8408 0.253498,3.95737 0.96,4.22848 0.528,0.20261 0.96,0.62557 0.96,0.93991 0,0.31434 -1.44,0.57153 -3.2,0.57153 z m 10.522227,0 c -1.563225,0 -2.842227,-0.288 -2.842227,-0.64 0,-0.352 0.288,-0.64 0.64,-0.64 0.361024,0 0.64,-1.81333 0.64,-4.16 0,-2.34667 -0.278976,-4.16 -0.64,-4.16 -0.352,0 -0.64,-0.288 -0.64,-0.64 0,-0.352 1.512,-0.63084 3.36,-0.61965 2.931354,0.0177 3.21712,0.12882 2.24,0.87056 -0.852736,0.64732 -1.12,1.78787 -1.12,4.77964 0,3.13229 0.202419,3.92945 0.997773,3.92945 0.548774,0 0.819776,0.288 0.602227,0.64 -0.217549,0.352 -1.674547,0.64 -3.237773,0.64 z m 12.895753,-0.13821 c -3.0942,0.25659 -3.6701,0.10427 -5.13166,-1.35729 -1.06288,-1.06288 -1.64632,-2.35197 -1.64632,-3.63749 0,-1.09513 0.31118,-2.57261 0.69151,-3.28327 0.38034,-0.71065 1.68687,-1.70798 2.90341,-2.21629 1.69542,-0.70839 2.78027,-0.77114 4.646136,-0.2687 1.75956,0.47379 2.75466,1.2504 3.5902,2.8019 0.72577,1.34769 1.0003,2.71819 0.73774,3.68289 -0.23,0.84506 -0.84287,2.08833 -1.36193,2.76284 -0.66016,0.85785 -1.99109,1.31323 -4.429086,1.51541 z m -0.87209,-1.14179 c 0.74433,0 1.879996,-0.47663 2.523716,-1.05919 0.72607,-0.65709 1.17039,-1.94481 1.17039,-3.392 0,-1.28304 -0.3456,-2.67841 -0.768,-3.10081 -0.4224,-0.4224 -1.55807,-0.768 -2.523706,-0.768 -1.08878,0 -2.13416,0.54031 -2.752,1.42241 -0.54796,0.78231 -0.99629,2.01424 -0.99629,2.73759 0,0.72335 0.44833,1.95528 0.99629,2.73759 0.54796,0.78233 1.60528,1.42241 2.3496,1.42241 z m 12.014106,1.28 c -1.408,0 -2.56,-0.288 -2.56,-0.64 0,-0.352 0.432,-0.64 0.96,-0.64 0.75487,0 0.96,-0.88889 0.96,-4.16 0,-3.27111 -0.20513,-4.16 -0.96,-4.16 -0.528,0 -0.96,-0.288 -0.96,-0.64 0,-0.352 0.792,-0.64341 1.76,-0.64758 1.31862,-0.006 2.51876,0.83695 4.78557,3.36 l 3.02556,3.36758 0.0145,-2.72 c 0.0106,-1.99752 -0.24055,-2.72 -0.94556,-2.72 -0.528,0 -0.96,-0.288 -0.96,-0.64 0,-0.352 1.368,-0.63084 3.04,-0.61965 2.7999,0.0188 2.94276,0.0939 1.80883,0.95185 -1.02014,0.77182 -1.22188,1.7008 -1.17695,5.41964 0.0403,3.33199 -0.16475,4.48816 -0.79581,4.48816 -0.46752,0 -2.30982,-1.656 -4.09401,-3.68 l -3.24396,-3.68 -0.009,2.74008 c -0.006,1.85156 0.30226,2.85955 0.95095,3.10848 0.528,0.20261 0.96,0.62557 0.96,0.93991 0,0.31434 -1.152,0.57153 -2.56,0.57153 z m 23.68,0 c -1.76,0 -3.2,-0.16457 -3.2,-0.36572 0,-0.20113 0.432,-0.79771 0.96,-1.32571 0.58703,-0.58703 0.96,-2.15514 0.96,-4.03622 0,-2.46587 -0.28572,-3.27553 -1.44,-4.08072 -1.38219,-0.96416 -1.29226,-1.00584 2.24,-1.03806 2.04904,-0.0187 3.68,0.25007 3.68,0.60643 0,0.352 -0.432,0.64 -0.96,0.64 -0.75487,0 -0.96,0.88889 -0.96,4.16 0,3.27111 0.20513,4.16 0.96,4.16 0.528,0 0.96,0.288 0.96,0.64 0,0.352 -1.44,0.64 -3.2,0.64 z m 8.32,0 c -1.408,0 -2.56,-0.264 -2.56,-0.58667 0,-0.32266 0.3395,-0.69983 0.75445,-0.83815 0.49003,-0.16334 0.7018,-1.58395 0.60423,-4.05333 -0.0826,-2.09101 -0.42214,-3.89785 -0.75446,-4.01518 -0.33232,-0.11734 -0.60422,-0.47734 -0.60422,-0.8 0,-0.32267 0.69958,-0.58667 1.55461,-0.58667 1.03838,0 2.62771,1.11574 4.7862,3.36 l 3.23158,3.36 0.0138,-2.42008 c 0.009,-1.57056 -0.32318,-2.54941 -0.94619,-2.78848 -0.528,-0.20261 -0.96,-0.62557 -0.96,-0.93991 0,-0.31434 1.152,-0.57153 2.56,-0.57153 1.408,0 2.56,0.25719 2.56,0.57153 0,0.31434 -0.432,0.7373 -0.96,0.93991 -0.72739,0.27913 -0.96,1.45879 -0.96,4.86848 0,3.19803 -0.23147,4.48671 -0.8,4.45388 -0.44,-0.0254 -1.952,-1.44462 -3.36,-3.1538 -1.408,-1.70918 -2.776,-3.1284 -3.04,-3.1538 -0.26402,-0.0254 -0.48002,1.1058 -0.48002,2.5138 0,1.84889 0.26667,2.56 0.96,2.56 0.528,0 0.96,0.288 0.96,0.64 0,0.352 -1.152,0.64 -2.56,0.64 z m 24.96,0 c -1.76,0 -3.2,-0.288 -3.2,-0.64 0,-0.352 0.432,-0.64 0.96,-0.64 0.75487,0 0.96,-0.88889 0.96,-4.16 0,-3.46057 -0.17983,-4.16 -1.06961,-4.16 -0.58828,0 -1.59628,0.47663 -2.24,1.05919 -1.10593,1.00086 -1.17039,0.96561 -1.17039,-0.64 v -1.69919 h 6 c 5.97333,0 6,0.007 6,1.6 0,0.88 -0.12857,1.6 -0.28572,1.6 -0.15713,0 -0.71771,-0.432 -1.24571,-0.96 -0.528,-0.528 -1.51542,-0.96 -2.19429,-0.96 -1.08261,0 -1.23428,0.47432 -1.23428,3.86008 0,2.8408 0.2535,3.95737 0.96,4.22848 0.528,0.20261 0.96,0.62557 0.96,0.93991 0,0.31434 -1.44,0.57153 -3.2,0.57153 z m 10.88,0 c -1.76,0 -3.2,-0.25719 -3.2,-0.57153 0,-0.31434 0.432,-0.7373 0.96,-0.93991 0.69413,-0.26636 0.96,-1.35436 0.96,-3.92856 0,-2.5742 -0.26587,-3.6622 -0.96,-3.92856 -0.528,-0.20261 -0.96,-0.62557 -0.96,-0.93991 0,-0.31434 1.44,-0.57153 3.2,-0.57153 1.76,0 3.2,0.288 3.2,0.64 0,0.352 -0.432,0.64 -0.96,0.64 -0.59733,0 -0.96,0.60444 -0.96,1.6 0,1.44 0.256,1.6 2.56,1.6 1.792,0 2.56,-0.27428 2.56,-0.91428 0,-0.50287 -0.432,-1.34629 -0.96,-1.87429 -0.528,-0.528 -0.96,-1.12458 -0.96,-1.32571 0,-0.20115 1.512,-0.35656 3.36,-0.34537 2.93135,0.0177 3.21712,0.12882 2.24,0.87056 -0.85274,0.64732 -1.12,1.78787 -1.12,4.77964 0,3.13229 0.20242,3.92945 0.99777,3.92945 0.54878,0 0.81978,0.288 0.60223,0.64 -0.21755,0.352 -1.67455,0.64 -3.23777,0.64 -1.56323,0 -2.84223,-0.264 -2.84223,-0.58667 0,-0.32266 0.26671,-0.68266 0.59268,-0.8 0.32598,-0.11733 0.7892,-1.00533 1.02938,-1.97333 0.42312,-1.70527 0.35494,-1.76 -2.19268,-1.76 -2.3867,0 -2.62938,0.14953 -2.62938,1.62008 0,0.89106 0.432,1.78587 0.96,1.98848 0.528,0.20261 0.96,0.62557 0.96,0.93991 0,0.31434 -1.44,0.57153 -3.2,0.57153 z m 18.20313,0 c -2.57818,0 -4.86558,-0.288 -5.08313,-0.64 -0.21755,-0.352 0.0534,-0.64 0.60223,-0.64 0.79535,0 0.99777,-0.79716 0.99777,-3.92945 0,-2.99177 -0.26726,-4.13232 -1.12,-4.77964 -0.96288,-0.73093 -0.43466,-0.85305 3.76536,-0.87056 4.50773,-0.0188 4.91389,0.0888 5.25461,1.3917 0.2031,0.77663 0.2504,1.53091 0.10512,1.67619 -0.14528,0.14528 -0.73042,-0.20215 -1.30033,-0.77205 -0.56991,-0.56991 -1.69568,-1.03619 -2.50173,-1.03619 -1.21813,0 -1.4139,0.2701 -1.15967,1.6 0.16822,0.88 0.54597,1.6 0.83945,1.6 0.29347,0 0.82714,-0.504 1.18593,-1.12 0.35879,-0.616 0.68966,-0.832 0.73528,-0.48 0.0456,0.352 0.15444,1.44216 0.24184,2.42257 0.0874,0.98041 -0.0852,1.9334 -0.38349,2.11777 -0.29831,0.18436 -0.54237,-0.11379 -0.54237,-0.66257 0,-0.54877 -0.384,-0.99777 -0.85333,-0.99777 -0.46934,0 -1.01401,0.16068 -1.21039,0.35706 -0.19639,0.19638 -0.21827,0.8878 -0.0486,1.53648 0.16963,0.64869 1.01857,1.31518 1.88652,1.4811 0.90866,0.17371 1.98293,-0.10316 2.53244,-0.65268 0.52489,-0.52488 1.07321,-0.83548 1.21849,-0.6902 0.14527,0.14528 0.098,0.89956 -0.10512,1.67619 -0.33837,1.29393 -0.76138,1.41205 -5.05684,1.41205 z m 18.22136,-0.0917 c -3.1164,-0.11031 -3.14449,-0.1304 -3.14449,-2.24979 0,-1.17618 0.288,-2.1385 0.64,-2.1385 0.352,0 0.64,0.26743 0.64,0.59428 0,0.32687 0.45257,1.04687 1.00572,1.6 0.55313,0.55315 1.56113,1.00572 2.24,1.00572 0.67885,0 1.23428,-0.41297 1.23428,-0.9177 0,-0.50473 -1.224,-1.73818 -2.72,-2.741 -1.52897,-1.02492 -2.80723,-2.42694 -2.91921,-3.20186 -0.12795,-0.88538 0.32997,-1.71886 1.28,-2.32981 0.81357,-0.52319 2.48721,-0.86678 3.71921,-0.76354 1.43698,0.12043 2.31279,0.55445 2.44305,1.21071 0.11168,0.56264 -0.0695,1.51009 -0.40271,2.10543 -0.54808,0.97936 -0.67622,0.95081 -1.34557,-0.29989 -0.40689,-0.76029 -1.30567,-1.38234 -1.99729,-1.38234 -0.69161,0 -1.25748,0.29223 -1.25748,0.64941 0,0.35717 0.936,1.20409 2.08,1.88205 1.144,0.67795 2.44,1.54907 2.88,1.93582 0.44,0.38676 0.8,1.24726 0.8,1.91224 0,0.66498 -0.45698,1.66603 -1.01551,2.22456 -0.69035,0.69035 -2.02234,0.97987 -4.16,0.90421 z m 14.45405,-0.0278 c -3.02964,0.16612 -3.72172,-0.0255 -5.11132,-1.41508 -1.10221,-1.10224 -1.60722,-2.30901 -1.60722,-3.84065 0,-1.409 0.54435,-2.86625 1.4747,-3.94785 1.1451,-1.33125 2.03911,-1.70954 4,-1.69251 1.38892,0.012 3.1013,0.14556 3.8053,0.29668 0.73076,0.15686 1.3719,0.89946 1.49418,1.73064 0.11781,0.80074 -0.0554,1.72546 -0.38486,2.05494 -0.37206,0.37206 -1.00444,-0.0197 -1.66894,-1.03382 -0.72777,-1.11072 -1.64627,-1.63286 -2.87241,-1.63286 -1.31049,0 -2.00525,0.44496 -2.54524,1.63011 -0.4085,0.89657 -0.74273,2.12848 -0.74273,2.7376 0,0.60912 0.44833,1.74757 0.99629,2.52988 0.57005,0.81387 1.66931,1.42241 2.56941,1.42241 1.06811,0 1.95488,-0.62775 2.76231,-1.95548 l 1.18921,-1.95549 0.33547,1.75493 c 0.18451,0.9652 0.21723,2.06304 0.0727,2.43965 -0.14452,0.3766 -1.83961,0.7712 -3.76687,0.87688 z m 9.92146,0.1195 c -1.76,0 -3.2,-0.25719 -3.2,-0.57153 0,-0.31434 0.432,-0.7373 0.96,-0.93991 0.69413,-0.26636 0.96,-1.35436 0.96,-3.92856 0,-2.5742 -0.26587,-3.6622 -0.96,-3.92856 -0.528,-0.20261 -0.96,-0.62557 -0.96,-0.93991 0,-0.31434 1.44,-0.57153 3.2,-0.57153 1.76,0 3.2,0.288 3.2,0.64 0,0.352 -0.432,0.64 -0.96,0.64 -0.75487,0 -0.96,0.88889 -0.96,4.16 0,3.27111 0.20513,4.16 0.96,4.16 0.528,0 0.96,0.288 0.96,0.64 0,0.352 -1.44,0.64 -3.2,0.64 z m 9.88223,0 c -2.74816,0 -4.76223,-0.27068 -4.76223,-0.64 0,-0.352 0.288,-0.64 0.64,-0.64 0.36102,0 0.64,-1.81333 0.64,-4.16 0,-2.34667 -0.27898,-4.16 -0.64,-4.16 -0.352,0 -0.64,-0.30061 -0.64,-0.66804 0,-0.41991 1.7234,-0.59819 4.64,-0.48 4.25777,0.17255 4.65684,0.30666 4.84451,1.62804 0.11248,0.792 -0.0727,1.44 -0.41152,1.44 -0.33883,0 -0.78182,-0.432 -0.98443,-0.96 -0.20261,-0.528 -1.09742,-0.96 -1.98848,-0.96 -1.30142,0 -1.62008,0.31471 -1.62008,1.6 0,0.88 0.27369,1.6 0.6082,1.6 0.33451,0 0.90175,-0.504 1.26054,-1.12 0.35879,-0.616 0.68478,-0.832 0.72442,-0.48 0.0396,0.352 0.19941,1.41068 0.35502,2.35262 0.1556,0.94194 -0.0121,1.89494 -0.37263,2.11777 -0.36055,0.22283 -0.65555,-0.0438 -0.65555,-0.59262 0,-0.54877 -0.432,-0.99777 -0.96,-0.99777 -0.59733,0 -0.96,0.60444 -0.96,1.6 0,1.32572 0.3072,1.6 1.792,1.6 0.9856,0 2.12816,-0.33616 2.53902,-0.74702 0.56936,-0.56936 0.8416,-0.50054 1.14471,0.28936 0.21873,0.57 0.21118,1.33816 -0.0168,1.70701 -0.22888,0.37031 -2.54719,0.67065 -5.17673,0.67065 z m 10.27777,0 c -1.19045,0 -2.34245,-0.288 -2.56,-0.64 -0.21755,-0.352 0.0534,-0.64 0.60223,-0.64 0.63546,0 1.03724,-0.63909 1.10645,-1.76 0.0598,-0.968 0.0573,-2.73805 -0.006,-3.93344 -0.0632,-1.20403 -0.61126,-2.55087 -1.22868,-3.01965 -1.00024,-0.75942 -0.90935,-0.84829 0.88631,-0.86656 1.61979,-0.0164 2.62536,0.65678 5.28,3.53509 l 3.27916,3.55545 V 444.659 c 0,-1.88632 -0.36098,-2.76918 -1.44,-3.52187 -1.3975,-0.97484 -1.35026,-1.00548 1.6,-1.03806 1.672,-0.0185 3.04,0.25443 3.04,0.60643 0,0.352 -0.432,0.64 -0.96,0.64 -0.768,0 -0.96,0.96 -0.96,4.8 0,2.9662 -0.26019,4.8 -0.68105,4.8 -0.37458,0 -2.0916,-1.512 -3.8156,-3.36 l -3.13456,-3.36 -0.0244,2.72 c -0.0184,2.04731 0.22236,2.72 0.97337,2.72 0.54878,0 0.81978,0.288 0.60223,0.64 -0.21755,0.352 -1.36955,0.64 -2.56,0.64 z m 19.68,-0.10799 c -2.767,0.0629 -4.0386,-0.21777 -5.12539,-1.13115 -0.79496,-0.66812 -1.61499,-2.06275 -1.82227,-3.09917 -0.23024,-1.15119 0.0166,-2.64523 0.63426,-3.83974 0.64219,-1.24187 1.82888,-2.22521 3.25222,-2.69496 1.25613,-0.41456 2.87838,-0.52348 3.69113,-0.24783 0.79753,0.27048 1.81005,0.4227 2.25005,0.33825 0.51839,-0.0995 0.8,0.64487 0.8,2.11453 0,1.24743 -0.24177,2.26806 -0.53727,2.26806 -0.2955,0 -0.86532,-0.72 -1.26628,-1.6 -0.54071,-1.18673 -1.22266,-1.6 -2.64021,-1.6 -1.23454,0 -2.14577,0.43829 -2.57372,1.23793 -0.36439,0.68085 -0.66252,1.99579 -0.66252,2.92207 0,0.92628 0.29813,2.24122 0.66252,2.92207 0.37157,0.69429 1.33488,1.23793 2.19354,1.23793 0.87083,0 2.07376,-0.68995 2.7896,-1.6 0.69221,-0.88 1.43311,-1.6 1.64645,-1.6 0.21334,0 0.38789,0.96489 0.38789,2.1442 v 2.1442 z m 11.71777,0.10799 c -2.61922,0 -4.94022,-0.288 -5.15777,-0.64 -0.21755,-0.352 0.0534,-0.64 0.60223,-0.64 0.79535,0 0.99777,-0.79716 0.99777,-3.92945 0,-2.99177 -0.26726,-4.13232 -1.12,-4.77964 -0.96288,-0.73093 -0.43465,-0.85305 3.76539,-0.87056 4.70972,-0.0197 4.89639,0.0372 5.19125,1.57965 0.16822,0.88 0.0721,1.6 -0.21359,1.6 -0.28569,0 -0.77579,-0.45805 -1.08909,-1.0179 -0.33527,-0.59909 -1.18032,-0.92824 -2.05387,-0.8 -0.81637,0.11985 -1.55664,0.72072 -1.64516,1.33536 -0.0885,0.6146 0.13935,1.30303 0.50634,1.52986 0.36701,0.22681 0.93506,-0.0661 1.26234,-0.65092 0.32728,-0.58483 0.84595,-0.90826 1.1526,-0.71874 0.30665,0.18952 0.53283,1.21385 0.50263,2.27629 -0.0302,1.06243 -0.26863,2.06377 -0.52982,2.2252 -0.26119,0.16143 -0.64003,-0.13685 -0.84187,-0.66282 -0.20184,-0.52598 -0.66401,-0.95633 -1.02707,-0.95633 -0.36304,0 -0.66008,0.72 -0.66008,1.6 0,1.32572 0.3072,1.6 1.792,1.6 0.9856,0 2.1376,-0.3456 2.56,-0.768 0.59733,-0.59733 0.768,-0.384 0.768,0.96 0,1.72252 -0.0151,1.728 -4.76223,1.728 z m 11.08387,0 h -3.12164 v -2.24 c 0,-1.232 0.21971,-2.24 0.48824,-2.24 0.26853,0 0.77253,0.648 1.12,1.44 0.41278,0.94086 1.18636,1.44 2.23176,1.44 0.88,0 1.6,-0.37096 1.6,-0.82437 0,-0.4534 -1.152,-1.46863 -2.56,-2.25606 -1.90546,-1.06564 -2.6137,-1.89752 -2.77004,-3.2536 -0.11552,-1.00205 0.0864,-2.11836 0.44877,-2.4807 0.36235,-0.36235 1.96886,-0.70304 3.57004,-0.7571 2.88753,-0.0975 2.91123,-0.0811 2.91123,2.01676 0,1.16329 -0.2686,2.11507 -0.59687,2.11507 -0.32828,0 -0.77969,-0.576 -1.00313,-1.28 -0.25958,-0.81788 -0.96834,-1.28 -1.96313,-1.28 -0.85627,0 -1.55687,0.26642 -1.55687,0.59205 0,0.32563 1.224,1.26536 2.72,2.08831 2.04591,1.12544 2.77111,1.93997 2.92625,3.28665 0.11343,0.98471 -0.13783,2.20498 -0.55837,2.71169 -0.47414,0.5713 -1.95051,0.9213 -3.88624,0.9213 z M 22.009725,429.64825 c -2.6963,0.30391 -3.178937,0.14622 -4.938882,-1.61373 -1.146064,-1.14606 -1.950559,-2.61835 -1.950559,-3.56967 0,-0.89052 0.319758,-2.32092 0.710574,-3.17867 0.390815,-0.85774 1.412367,-1.87929 2.270114,-2.27011 0.857747,-0.39081 2.223012,-0.71057 3.033923,-0.71057 0.810911,0 2.341663,0.30234 3.401671,0.67186 1.060009,0.36952 2.254985,1.39107 2.655503,2.27011 0.400518,0.87904 0.728215,2.28865 0.728215,3.13246 0,0.8438 -0.657503,2.29859 -1.461117,3.23284 -1.066223,1.23956 -2.268771,1.78969 -4.449442,2.03548 z m -0.489441,-1.10275 c 0.384,0 1.405091,-0.70691 2.269091,-1.57091 0.864,-0.864 1.570909,-1.85325 1.570909,-2.19834 0,-0.34508 -0.274214,-1.34866 -0.609364,-2.23017 -0.335151,-0.88151 -1.21003,-1.92422 -1.944175,-2.31712 -0.734145,-0.39291 -1.856225,-0.54888 -2.493511,-0.34662 -0.637285,0.20227 -1.490407,1.09578 -1.895826,1.98557 -0.405418,0.8898 -0.737124,2.04936 -0.737124,2.5768 0,0.52743 0.706909,1.66588 1.570909,2.52988 0.864,0.864 1.885091,1.57091 2.269091,1.57091 z m 15.288498,1.28 c -0.938682,0 -2.365125,-0.53316 -3.169873,-1.18481 -1.159942,-0.93927 -1.522169,-2.00035 -1.747823,-5.12 -0.223414,-3.08867 -0.509028,-3.9373 -1.327724,-3.94499 -0.907258,-0.009 -0.918076,-0.0906 -0.08308,-0.6302 0.528,-0.34122 2.023003,-0.62481 3.322229,-0.6302 1.299226,-0.005 2.540223,0.2782 2.757771,0.6302 0.217548,0.352 -0.02264,0.64 -0.533756,0.64 -0.511114,0 -1.104111,0.45555 -1.317771,1.01235 -0.21366,0.55678 -0.388473,1.87171 -0.388473,2.92207 0,1.05035 0.298133,2.4668 0.662518,3.14765 0.375933,0.70244 1.335145,1.23793 2.217482,1.23793 0.882337,0 1.841549,-0.53549 2.217482,-1.23793 0.364385,-0.68085 0.662518,-2.39454 0.662518,-3.80819 0,-1.70934 -0.349092,-2.76564 -1.042186,-3.15352 -0.75688,-0.42357 -0.833114,-0.71244 -0.278474,-1.05523 0.420042,-0.2596 1.825026,-0.26256 3.122186,-0.007 1.353022,0.26702 1.949212,0.60782 1.398474,0.79941 -0.528,0.18368 -1.17159,0.65078 -1.4302,1.038 -0.25861,0.38722 -0.47461,2.1997 -0.48,4.02775 -0.008,2.70259 -0.275607,3.50988 -1.432204,4.32 -0.78232,0.54838 -2.190414,0.99671 -3.129096,0.99671 z m 19.401252,0 c -0.280638,0 -1.999329,-1.656 -3.819313,-3.68 l -3.309063,-3.68 -0.02069,2.6882 c -0.01462,1.90044 0.307522,2.87936 1.099313,3.34054 0.871188,0.50742 0.41748,0.65666 -2.042323,0.6718 -2.812627,0.0173 -3.03139,-0.0763 -1.978286,-0.84633 0.838287,-0.61297 1.21299,-1.76908 1.283187,-3.95914 0.06987,-2.17996 -0.227873,-3.42036 -1.00838,-4.20087 -0.609143,-0.60914 -0.963044,-1.25202 -0.786447,-1.42862 0.176596,-0.17659 1.088596,-0.18783 2.026666,-0.025 1.006309,0.17471 2.940596,1.66206 4.717875,3.62775 l 3.012292,3.33163 0.0277,-2.74008 c 0.01886,-1.8645 -0.279058,-2.85781 -0.932292,-3.10848 -0.528,-0.20261 -0.96,-0.56928 -0.96,-0.81483 0,-0.24554 1.08,-0.38053 2.4,-0.29996 1.32,0.0806 2.492572,0.16828 2.605715,0.19491 0.113142,0.0266 -0.246858,0.50101 -0.8,1.05416 -0.720746,0.72074 -1.005714,2.26216 -1.005714,5.44 0,2.43885 -0.229613,4.43428 -0.51025,4.43428 z m 61.950246,0 c -2.08497,0 -3.06204,-0.40357 -4.52923,-1.87077 -1.2768,-1.27679 -1.87077,-2.51163 -1.87077,-3.88923 0,-1.3776 0.59397,-2.61244 1.87077,-3.88923 1.46719,-1.4672 2.44426,-1.87077 4.52923,-1.87077 2.08497,0 3.06204,0.40357 4.52923,1.87077 1.2768,1.27679 1.87077,2.51163 1.87077,3.88923 0,1.3776 -0.59397,2.61244 -1.87077,3.88923 -1.46719,1.4672 -2.44426,1.87077 -4.52923,1.87077 z m 0.0176,-1.35424 c 0.18568,0.0408 0.97768,-0.37409 1.76,-0.92205 1.05342,-0.73784 1.42241,-1.63911 1.42241,-3.47429 0,-1.39938 -0.43776,-2.91575 -1.00572,-3.4837 -0.55314,-0.55315 -1.48914,-1.00131 -2.08,-0.99592 -0.59085,0.005 -1.41627,0.22725 -1.83425,0.49302 -0.41797,0.26578 -1.05475,1.25859 -1.41505,2.20626 -0.44861,1.17992 -0.4456,2.32398 0.01,3.6296 0.36555,1.0486 1.14632,2.03397 1.73505,2.1897 0.58874,0.15573 1.22234,0.31655 1.40802,0.35738 z m 19.96847,1.35424 c -0.27165,0 -1.9841,-1.656 -3.80542,-3.68 l -3.31151,-3.68 -0.0346,2.6882 c -0.0246,1.91071 0.28936,2.87687 1.08543,3.34054 0.8705,0.50702 0.41106,0.65667 -2.0624,0.6718 -3.06082,0.0187 -3.12806,-0.0186 -1.76,-0.97683 1.03708,-0.7264 1.42003,-1.63661 1.41367,-3.36 -0.005,-1.30004 -0.1824,-3.01171 -0.39465,-3.80371 -0.21225,-0.792 -0.85632,-1.46274 -1.43126,-1.49053 -0.57494,-0.0278 -0.21916,-0.35119 0.79062,-0.71866 1.73639,-0.63189 2.02123,-0.46423 5.25061,3.09053 l 3.41462,3.75866 0.0294,-2.74008 c 0.02,-1.86567 -0.27696,-2.85765 -0.93061,-3.10848 -0.528,-0.20261 -0.96,-0.5749 -0.96,-0.82731 0,-0.25241 0.936,-0.39034 2.08,-0.30652 1.144,0.0838 2.368,0.1859 2.72,0.22686 0.352,0.041 0.136,0.368 -0.48,0.72679 -0.90807,0.52891 -1.12,1.55458 -1.12,5.42054 0,2.62251 -0.22226,4.7682 -0.49392,4.7682 z m 31.40571,-0.0256 c -0.98548,-0.0141 -2.55323,-0.43928 -3.4839,-0.94487 -0.93066,-0.50559 -1.97363,-1.72681 -2.31771,-2.71382 -0.42468,-1.21825 -0.3951,-2.50234 0.0921,-3.99844 0.40319,-1.23809 1.41886,-2.55763 2.31771,-3.01113 0.88,-0.44398 2.41956,-0.81149 3.42125,-0.81668 1.00169,-0.005 2.64947,0.47981 3.66174,1.07777 1.01226,0.59795 2.08964,1.82195 2.39417,2.72 0.31067,0.9161 0.31157,2.54224 0.002,3.70474 -0.35104,1.31851 -1.23238,2.42398 -2.42364,3.04 -1.02961,0.53243 -2.67831,0.95652 -3.66379,0.94243 z m 0.60822,-1.27386 c 0.264,0.0107 1.056,-0.55654 1.76,-1.26054 0.71111,-0.71111 1.28,-2.13333 1.28,-3.2 0,-1.06667 -0.56889,-2.48889 -1.28,-3.2 -0.704,-0.704 -1.712,-1.28 -2.24,-1.28 -0.528,0 -1.536,0.576 -2.24,1.28 -0.704,0.704 -1.27559,2.072 -1.2702,3.04 0.005,0.968 0.22139,2.07261 0.48,2.45469 0.25861,0.38209 1.0462,1.02133 1.7502,1.42054 0.704,0.39921 1.496,0.73461 1.76,0.74531 z m 63.9505,1.29946 c -0.2699,0 -1.59786,-2.304 -2.95102,-5.12 -1.52457,-3.17272 -2.85187,-5.13543 -3.48989,-5.16057 -0.74311,-0.0293 -0.66227,-0.18927 0.29051,-0.57502 0.72605,-0.29395 2.31005,-0.43807 3.52,-0.32029 1.20994,0.11779 2.3439,0.24131 2.5199,0.27448 0.176,0.0332 -0.1618,0.34146 -0.75068,0.68506 -1.0009,0.58403 -1.0009,0.79087 0,3.17403 0.58888,1.40211 1.25541,2.55222 1.48119,2.5558 0.22578,0.004 0.87378,-1.15132 1.44,-2.56644 0.56622,-1.41513 1.02949,-2.71113 1.02949,-2.88 0,-0.16888 -0.48,-0.30705 -1.06667,-0.30705 -0.58666,0 -0.88399,-0.18268 -0.66072,-0.40595 0.22327,-0.22327 1.40343,-0.51586 2.62258,-0.65021 1.21915,-0.13435 2.37883,0.0182 2.57705,0.33888 0.19822,0.32074 -0.0876,0.75508 -0.63525,0.96523 -0.54762,0.21014 -1.99469,2.54431 -3.21571,5.18706 -1.22102,2.64274 -2.44087,4.80499 -2.71078,4.80499 z m 30.99888,-0.0486 c -0.39016,-0.0267 -2.21288,-1.68271 -4.05049,-3.68 l -3.34112,-3.63142 -0.0189,2.6222 c -0.0151,2.09733 0.26935,2.7612 1.42112,3.31669 1.24526,0.60056 1.00723,0.69771 -1.76,0.71833 -2.4722,0.0184 -2.94527,-0.12451 -2.08,-0.62848 0.86914,-0.50623 1.12,-1.50982 1.12,-4.48062 0,-2.81254 -0.25472,-3.92603 -0.96,-4.19668 -0.528,-0.20261 -0.96,-0.58957 -0.96,-0.85991 0,-0.27034 0.724,-0.49153 1.60889,-0.49153 1.13198,0 2.55483,1.035 4.8,3.49158 l 3.19111,3.49157 v -2.57977 c 0,-1.78175 -0.34646,-2.78157 -1.12,-3.23212 -0.616,-0.35879 -0.832,-0.69785 -0.48,-0.75347 0.352,-0.0556 1.36,-0.1768 2.24,-0.26927 0.88,-0.0925 2.032,0.0795 2.56,0.38222 0.82679,0.47398 0.81422,0.55304 -0.0906,0.5698 -0.57784,0.0107 -1.18826,0.66746 -1.35649,1.45946 -0.16823,0.792 -0.24023,3.096 -0.16,5.12 0.0942,2.3767 -0.10537,3.6628 -0.56351,3.63142 z m 11.45062,-0.30576 c -1.056,0.17825 -2.58079,0.0474 -3.38844,-0.29067 -0.80764,-0.33812 -1.8915,-1.62731 -2.40858,-2.86486 -0.82606,-1.97704 -0.82637,-2.52245 -0.003,-4.49418 0.58054,-1.38943 1.6197,-2.50413 2.72858,-2.92694 0.98503,-0.37558 3.01496,-0.50009 4.51096,-0.27671 2.59393,0.38732 2.72,0.50816 2.72,2.60693 0,1.21043 -0.25441,2.20079 -0.56536,2.20079 -0.31094,0 -0.71416,-0.56906 -0.89605,-1.26458 -0.18188,-0.69552 -1.0783,-1.60522 -1.99204,-2.02155 -1.37698,-0.62739 -1.86296,-0.5745 -2.8392,0.30898 -0.70794,0.64068 -1.21637,2.04892 -1.2744,3.52978 -0.068,1.73473 0.28058,2.80512 1.17785,3.61715 1.03476,0.93643 1.56434,1.0212 2.81629,0.45078 0.84804,-0.3864 1.73028,-1.29609 1.96053,-2.02155 0.23025,-0.72545 0.68723,-1.31901 1.01551,-1.31901 0.32828,0 0.59687,0.9901 0.59687,2.20022 0,1.66096 -0.27451,2.20526 -1.12,2.22078 -0.616,0.0113 -1.984,0.1664 -3.04,0.34464 z M 6.2745691,429.16604 c -3.096103,0.0177 -3.314285,-0.072 -2.399999,-0.98626 0.638207,-0.6382 1.005714,-2.14164 1.005714,-4.11428 0,-1.90984 -0.370196,-3.47876 -0.96,-4.06857 -0.528,-0.528 -0.959674,-1.05258 -0.959275,-1.16571 3.98e-4,-0.11315 2.132298,-0.24646 4.737554,-0.29626 l 4.7368299,-0.0905 0.271602,1.85054 c 0.149381,1.0178 0.06429,1.85054 -0.189082,1.85054 -0.253376,0 -0.626457,-0.432 -0.82907,-0.96 -0.215349,-0.56119 -1.174346,-0.96 -2.3084729,-0.96 -1.513419,0 -1.940086,0.2815 -1.940086,1.28 0,0.71111 0.426667,1.28 0.96,1.28 0.528,0 0.96,-0.288 0.96,-0.64 0,-0.352 0.288,-0.64 0.6399999,-0.64 0.352,0 0.64,1.008 0.64,2.24 0,1.232 -0.288,2.24 -0.64,2.24 -0.3519999,0 -0.6399999,-0.288 -0.6399999,-0.64 0,-0.352 -0.432,-0.64 -0.96,-0.64 -0.592142,0 -0.96,0.60091 -0.96,1.5682 0,0.86251 0.504,1.86175 1.12,2.22054 0.863375,0.50287 0.339652,0.6568 -2.285715,0.6718 z m 59.3254649,0.0195 c -3.981939,0 -4.48112,-0.11939 -3.499686,-0.83703 0.862688,-0.63082 1.138093,-1.69083 1.117862,-4.3026 -0.01856,-2.39481 -0.33904,-3.69385 -1.037292,-4.20442 -0.901193,-0.65897 -0.879129,-0.7732 0.204057,-1.05646 0.667975,-0.17468 2.474688,-0.21338 4.014906,-0.086 1.540224,0.12739 3.443168,0.38313 4.228761,0.56834 0.7856,0.18519 1.882112,1.21419 2.436704,2.28664 0.820653,1.58698 0.872845,2.36047 0.280384,4.15564 -0.400377,1.21315 -1.261958,2.49152 -1.914624,2.84082 -0.652672,0.34928 -3.276652,0.63507 -5.831072,0.63507 z m 1.954535,-1.28 c 0.678861,0 1.686861,-0.45257 2.24,-1.00572 0.553145,-0.55313 1.005715,-1.72407 1.005715,-2.60207 0,-0.878 -0.298131,-2.15343 -0.662515,-2.83428 -0.379917,-0.70989 -1.335405,-1.23793 -2.24,-1.23793 -0.867616,0 -1.613485,0.288 -1.657485,0.64 -0.04397,0.352 -0.08,1.36 -0.08,2.24 0,0.88 0.03603,2.32 0.08,3.2 0.05632,1.12593 0.445715,1.6 1.314285,1.6 z m 9.965715,1.18616 c -2.682202,0.006 -2.975789,-0.10124 -1.814349,-0.66302 0.835891,-0.40432 2.203251,-2.54544 3.446419,-5.39669 1.133421,-2.59954 2.321127,-4.72645 2.639341,-4.72645 0.318215,0 1.557901,2.04351 2.754848,4.54112 1.196954,2.49762 2.697703,4.93646 3.335008,5.41965 1.027379,0.77894 0.759712,0.87972 -2.361267,0.88907 -2.281728,0.007 -3.205766,-0.18841 -2.626739,-0.55505 0.491289,-0.31108 0.716326,-1.02667 0.500083,-1.5902 -0.240851,-0.62766 -1.144774,-1.02459 -2.333261,-1.02459 -1.485299,0 -1.940083,0.28755 -1.940083,1.22667 0,0.67466 0.36,1.37193 0.8,1.54947 0.44,0.17754 -0.64,0.32606 -2.4,0.33002 z m 3.819917,-4.38616 c 0.570931,0 0.795846,-0.37542 0.572934,-0.95633 -0.201837,-0.52597 -0.6248,-0.79698 -0.93991,-0.60222 -0.315117,0.19475 -0.572941,0.6251 -0.572941,0.95632 0,0.33123 0.422963,0.60223 0.939917,0.60223 z m 13.140083,4.44108 c -2.696934,0 -3.258112,-0.15254 -2.4,-0.65234 0.8681,-0.50562 1.12,-1.50886 1.12,-4.46054 0,-3.61482 -0.0796,-3.8082 -1.568198,-3.8082 -0.862509,0 -1.830656,0.46899 -2.151437,1.04219 -0.320781,0.5732 -0.753197,0.76718 -0.960928,0.43106 -0.207731,-0.33611 -0.225383,-1.19356 -0.03923,-1.90544 0.304646,-1.16497 0.861158,-1.29515 5.569123,-1.30273 2.87686,-0.004 5.56333,0.25241 5.969916,0.57121 0.4066,0.31879 0.64463,1.07105 0.52897,1.67167 -0.11566,0.60062 -0.24109,1.23604 -0.27873,1.41204 -0.0376,0.176 -0.361976,-0.184 -0.720766,-0.8 -0.35878,-0.616 -1.35803,-1.12 -2.22053,-1.12 -1.48857,0 -1.5682,0.19338 -1.5682,3.8082 0,2.95168 0.2519,3.95492 1.12,4.46054 0.85811,0.4998 0.29693,0.65234 -2.4,0.65234 z m 11.199996,-0.031 c -2.90384,0.0235 -3.56695,-0.12797 -2.72,-0.62128 0.86643,-0.50464 1.12,-1.50735 1.12,-4.42873 0,-2.92139 -0.25357,-3.92409 -1.12,-4.42874 -0.616,-0.35879 -0.976,-0.69679 -0.8,-0.75112 0.176,-0.0543 1.472,-0.17558 2.88,-0.26946 1.408,-0.0939 2.992,0.0771 3.52,0.37986 0.82657,0.47402 0.81386,0.55324 -0.0915,0.56999 -0.57834,0.0107 -1.22634,0.47502 -1.44,1.03181 -0.21366,0.55679 -0.38406,2.21279 -0.37867,3.68 0.005,1.46721 0.22139,2.98447 0.48,3.37169 0.25861,0.38722 0.9022,0.86848 1.4302,1.06948 0.528,0.20099 -0.768,0.37941 -2.88,0.3965 z m 48.62241,0.0506 c -2.90875,-0.0148 -3.5547,-0.17539 -2.70241,-0.67181 0.86643,-0.50464 1.12,-1.50734 1.12,-4.42873 0,-2.92139 -0.25357,-3.92409 -1.12,-4.42874 -0.90039,-0.52443 -0.93176,-0.67009 -0.16,-0.74288 0.528,-0.0498 2.4,-0.17328 4.16,-0.27441 1.76,-0.10113 3.704,-0.0497 4.32,0.11421 0.72175,0.19208 1.11276,0.90857 1.09965,2.01495 -0.0186,1.56407 -0.096,1.61719 -0.87056,0.59687 -0.49216,-0.64834 -1.69644,-1.12 -2.85964,-1.12 -1.58278,0 -2.00945,0.27178 -2.00945,1.28 0,0.704 0.41769,1.28 0.9282,1.28 0.51051,0 1.22175,-0.504 1.58054,-1.12 0.50547,-0.86785 0.65234,-0.39957 0.65234,2.08 0,2.47956 -0.14687,2.94784 -0.65234,2.08 -0.35879,-0.616 -1.07003,-1.12 -1.58054,-1.12 -0.51051,0 -0.9282,0.55966 -0.9282,1.24371 0,0.68404 0.64008,1.69204 1.42241,2.24 1.35445,0.9487 1.2398,0.99536 -2.4,0.97683 z m 27.79678,-6.4e-4 c -3.01386,-0.0177 -3.315,-0.12982 -2.33919,-0.87056 0.8317,-0.63135 1.12,-1.77112 1.12,-4.42784 0,-2.73211 -0.2647,-3.73183 -1.12,-4.22999 -0.616,-0.35879 -0.832,-0.6911 -0.48,-0.73846 0.352,-0.0474 1.936,-0.14965 3.52,-0.22729 1.584,-0.0776 3.53491,0.14573 4.33535,0.49638 0.80043,0.35065 1.63362,1.34787 1.85152,2.21604 0.29405,1.17159 0.0362,1.85005 -1.00039,2.63192 -1.34089,1.01143 -1.35092,1.0984 -0.25152,2.18121 0.62977,0.62027 1.72104,1.53737 2.42504,2.038 1.20177,0.8546 1.13599,0.91147 -1.07642,0.93059 -1.92821,0.0166 -2.61927,-0.34879 -3.80288,-2.01102 -0.84035,-1.18017 -1.55658,-1.701 -1.70926,-1.24296 -0.14453,0.43362 0.2434,1.34773 0.86208,2.03136 1.10066,1.21622 1.05042,1.24253 -2.33433,1.22262 z m 2.56748,-5.74004 c 0.67466,0 1.35224,-0.36 1.50572,-0.8 0.15348,-0.44 0.14667,-1.16 -0.0152,-1.6 -0.1618,-0.44 -0.83938,-0.8 -1.50572,-0.8 -0.86562,0 -1.21153,0.45681 -1.21153,1.6 0,1.15014 0.34489,1.6 1.22667,1.6 z m 16.73101,5.7502 c -2.42194,0.008 -2.68262,-0.10852 -1.76254,-0.7902 0.59388,-0.44 2.07769,-2.888 3.29733,-5.44 1.21965,-2.552 2.48439,-4.64 2.81053,-4.64 0.32613,0 1.40901,1.92006 2.4064,4.26681 0.99737,2.34675 2.38008,4.79475 3.07269,5.44 1.23226,1.14803 1.18461,1.17277 -2.22141,1.15373 -2.62273,-0.0147 -3.21116,-0.17659 -2.38726,-0.65693 0.6031,-0.3516 0.93114,-1.06037 0.73153,-1.58054 -0.20464,-0.53327 -1.17518,-0.94307 -2.23351,-0.94307 -1.1257,0 -2.02831,0.40834 -2.26478,1.02459 -0.21625,0.56353 0.009,1.27912 0.50008,1.5902 0.59578,0.37724 -0.0533,0.56887 -1.94906,0.57541 z m 3.5024,-4.4702 c 0.51696,0 0.93992,-0.271 0.93992,-0.60223 0,-0.33122 -0.25782,-0.76157 -0.57294,-0.95632 -0.31511,-0.19476 -0.73807,0.0763 -0.93991,0.60222 -0.22291,0.58091 0.002,0.95633 0.57293,0.95633 z m 13.13511,4.48 c -4.52686,0 -4.71906,-0.0567 -3.3776,-0.99629 1.10018,-0.77059 1.42241,-1.62866 1.42241,-3.78766 0,-1.53525 -0.17481,-3.24692 -0.38847,-3.8037 -0.21366,-0.5568 -0.86166,-1.01676 -1.44,-1.02215 -0.91243,-0.009 -0.92454,-0.0915 -0.0915,-0.62709 0.528,-0.33951 2.688,-0.44875 4.8,-0.24275 2.112,0.206 4.3374,0.6388 4.94533,0.96176 0.60794,0.32297 1.4263,1.18694 1.81859,1.91994 0.39429,0.73674 0.53253,2.29605 0.30912,3.48693 -0.22228,1.18482 -1.03273,2.5945 -1.801,3.13262 -0.95188,0.66672 -2.92589,0.97839 -6.19685,0.97839 z m 1.60688,-1.28 c 0.55115,0 1.55915,-0.29813 2.24,-0.66252 0.88738,-0.47491 1.23793,-1.34483 1.23793,-3.072 0,-1.32521 -0.3456,-2.75508 -0.768,-3.17748 -0.4224,-0.4224 -1.4304,-0.768 -2.24,-0.768 -1.37244,0 -1.472,0.25971 -1.472,3.84 0,3.05832 0.20398,3.84 1.00207,3.84 z m 22.35793,1.24631 c -3.14911,0.005 -3.17757,-0.0123 -1.78972,-1.10054 0.77565,-0.60818 2.3148,-3.04977 3.42032,-5.42577 1.10553,-2.376 2.23187,-4.32 2.50299,-4.32 0.27112,0 1.5205,2.13479 2.77639,4.74397 1.2559,2.60919 2.80693,5.04843 3.44674,5.42054 0.91042,0.5295 0.32857,0.67657 -2.67672,0.67657 -2.855,0 -3.55953,-0.16352 -2.74658,-0.63747 0.6031,-0.3516 0.93114,-1.06037 0.73153,-1.58054 -0.19904,-0.51869 -1.16427,-0.94307 -2.14495,-0.94307 -0.98068,0 -1.94591,0.42438 -2.14495,0.94307 -0.19961,0.52017 0.12843,1.22894 0.73153,1.58054 0.83089,0.48441 0.32509,0.63872 -2.10658,0.6427 z m 3.52,-4.44631 c 0.83913,0 1.12077,-0.31026 0.87144,-0.96 -0.20261,-0.528 -0.59476,-0.96 -0.87144,-0.96 -0.27668,0 -0.66883,0.432 -0.87144,0.96 -0.24933,0.64974 0.0323,0.96 0.87144,0.96 z m 43.36,4.45965 c -4.52821,-0.0175 -5.12053,-0.14142 -4.16,-0.87056 0.83506,-0.6339 1.12,-1.77359 1.12,-4.47973 0,-2.62965 -0.26345,-3.73063 -0.95633,-3.99651 -0.52597,-0.20184 -0.83665,-0.5606 -0.69039,-0.79725 0.14626,-0.23666 1.80061,-0.3936 3.67633,-0.34877 1.87571,0.0449 3.91439,0.12463 4.53039,0.17734 0.77756,0.0665 1.11378,0.63395 1.09965,1.85583 -0.0185,1.59998 -0.0977,1.65817 -0.87056,0.64 -0.46761,-0.616 -1.61045,-1.12 -2.53964,-1.12 -1.26278,0 -1.68945,0.32326 -1.68945,1.28 0,0.71111 0.42667,1.28 0.96,1.28 0.528,0 0.96,-0.288 0.96,-0.64 0,-0.352 0.288,-0.64 0.64,-0.64 0.352,0 0.63084,1.224 0.61965,2.72 -0.018,2.39894 -0.12071,2.5878 -0.87056,1.6 -0.46761,-0.616 -1.19848,-1.12 -1.62416,-1.12 -0.43655,0 -0.6848,0.62776 -0.56944,1.44 0.15675,1.10368 0.6903,1.48684 2.28451,1.64055 1.54521,0.14899 2.08,-0.0567 2.08,-0.8 0,-0.5503 0.288,-1.00055 0.64,-1.00055 0.352,0 0.64,0.72 0.64,1.6 0,1.57902 -0.0692,1.59973 -5.28,1.57965 z m 12.27875,0 c -4.09472,-0.0175 -4.60247,-0.139 -3.63875,-0.87056 0.83506,-0.6339 1.12,-1.77359 1.12,-4.47973 0,-2.62965 -0.26345,-3.73063 -0.95633,-3.99651 -0.52597,-0.20184 -0.82501,-0.57944 -0.66451,-0.83912 0.16049,-0.25969 1.52684,-0.42016 3.03632,-0.3566 1.50949,0.0635 3.48222,0.16219 4.38384,0.2192 0.90163,0.057 2.26963,0.69089 3.04,1.4086 0.96458,0.89864 1.40068,2.0595 1.40068,3.72844 0,1.70577 -0.43869,2.83563 -1.48125,3.81507 -1.25189,1.17609 -2.21809,1.38841 -6.24,1.37121 z m 1.6265,-1.25965 c 0.98995,0 1.98388,-0.6084 2.6468,-1.62015 0.81569,-1.24489 0.92561,-2.09723 0.47457,-3.68 -0.48473,-1.70099 -0.94585,-2.09479 -2.64681,-2.2604 l -2.05981,-0.20055 v 3.88055 c 0,3.70296 0.0725,3.88055 1.58525,3.88055 z m -30.18378,-29.44 h -1.48147 v -11.24251 -11.24251 l 1.73485,0.20251 c 1.43428,0.16742 1.821,0.62005 2.23207,2.61245 0.27346,1.32547 1.04783,3.48924 1.7208,4.80839 0.67298,1.31914 2.04456,3.22803 3.04794,4.24198 1.00339,1.01394 3.26434,2.51935 5.02434,3.34535 2.19699,1.0311 4.36342,1.50379 6.91178,1.50809 2.04148,0.003 4.51872,-0.41103 5.50496,-0.92104 0.98625,-0.51001 2.26795,-1.65187 2.84822,-2.53748 0.58028,-0.88561 1.05504,-2.35463 1.05504,-3.2645 0,-0.90986 -0.4317,-2.4891 -0.95933,-3.50943 -0.52763,-1.02032 -1.89563,-2.5638 -3.04,-3.42995 -1.14437,-0.86614 -5.67389,-3.34459 -10.0656,-5.50766 -4.3917,-2.16306 -8.93858,-4.66024 -10.10416,-5.54928 -1.16559,-0.88903 -2.87611,-2.81537 -3.80117,-4.28075 -1.29716,-2.05484 -1.73802,-3.69026 -1.92717,-7.149 -0.20777,-3.79921 -0.0198,-4.87139 1.22975,-7.0149 0.81126,-1.39162 2.70947,-3.47178 4.21826,-4.62257 1.50878,-1.15079 3.95514,-2.41989 5.43633,-2.82022 1.4812,-0.40032 4.85309,-0.59988 7.49309,-0.44345 3.21142,0.19029 5.69176,0.74314 7.4945,1.67045 1.48198,0.76232 2.95904,1.38603 3.28236,1.38603 0.32332,0 0.94573,-0.864 1.38314,-1.92 0.56844,-1.37233 1.22954,-1.92 2.31764,-1.92 h 1.52236 v 9.96251 9.96251 l -1.64881,-0.20251 c -1.36265,-0.16736 -1.84924,-0.79696 -2.80373,-3.62773 -0.63521,-1.88387 -1.71973,-4.18787 -2.41004,-5.12 -0.69031,-0.93213 -2.18573,-2.3283 -3.32315,-3.1026 -1.13743,-0.7743 -3.35503,-1.60081 -4.92801,-1.83669 -1.99864,-0.29972 -3.69182,-0.11119 -5.62213,0.626 -1.90309,0.7268 -3.12235,1.72372 -3.9203,3.20543 -0.99721,1.85171 -1.04494,2.42387 -0.34348,4.11735 0.44807,1.08174 1.77935,2.70259 2.95841,3.6019 1.17905,0.89931 5.45456,3.19077 9.50112,5.09214 4.04656,1.90137 8.69432,4.37687 10.32835,5.50111 1.63404,1.12425 3.80815,3.36418 4.83137,4.97763 1.58637,2.50145 1.8604,3.57801 1.8604,7.30881 0,2.50304 -0.42467,5.39344 -0.99244,6.7547 -0.54584,1.30869 -1.91384,3.34115 -3.04,4.51659 -1.12616,1.17543 -3.48756,2.90321 -5.24756,3.8395 -2.85003,1.51619 -3.89994,1.70242 -9.6,1.70286 -6.01612,4.6e-4 -6.62755,-0.12427 -10.19365,-2.07951 -2.08651,-1.144 -4.03517,-2.08 -4.33036,-2.08 -0.29518,0 -1.01738,1.008 -1.60488,2.24 -0.76644,1.60723 -1.48667,2.24 -2.54964,2.24 z m -264.8095269,-1.92 h -4.128062 l -0.191938,-3.68 c -0.105567,-2.024 -0.04794,-14.01823 0.128061,-26.65386 l 0.32,-22.97385 9.2799999,-6.75749 c 5.104,-3.71662 14.752,-10.78073 21.44,-15.69803 6.688,-4.9173 12.636201,-8.96219 13.218225,-8.98865 0.582024,-0.0265 3.268199,1.53588 5.969278,3.47188 2.701079,1.936 12.448875,9.02682 21.661777,15.75738 l 16.75072,12.23739 0.167021,26.64261 0.167019,26.64262 H 88.407305 84.240284 V 372.0234 347.5013 l -5.92,-3.5516 c -3.256,-1.95339 -11.248,-6.79459 -17.76,-10.75822 -6.512,-3.96363 -12.128,-7.21074 -12.48,-7.21579 -0.352,-0.005 -7.84,4.39633 -16.64,9.78085 -8.8,5.38453 -16.790179,10.2488 -17.755953,10.8095 l -1.755954,1.01946 -0.004,24.48 -0.004,24.48 z m 25.3547279,0 c -5.221334,0 -9.685334,-0.192 -9.92,-0.42667 -0.234667,-0.23466 -0.426667,-4.69866 -0.426667,-9.92 v -9.49333 h 9.92 9.92 v 9.92 9.92 z m 30.400002,0 c -5.397336,0 -10.005336,-0.192 -10.240002,-0.42667 -0.234667,-0.23466 -0.426667,-4.69866 -0.426667,-9.92 v -9.49333 h 10.24 10.24 v 9.92 9.92 z m 57.813327,0 h -16 v -1.92 c 0,-1.8401 0.11626,-1.92 2.79369,-1.92 1.84531,0 3.35866,-0.4444 4.45796,-1.30911 0.91534,-0.72001 1.96057,-2.37601 2.32274,-3.68 0.36887,-1.32815 0.65333,-9.12634 0.64677,-17.73089 -0.006,-8.448 -0.27861,-16.512 -0.60484,-17.92 -0.32623,-1.408 -1.20687,-3.0572 -1.95697,-3.66489 -0.7501,-0.60768 -2.78032,-1.29279 -4.51159,-1.52245 -2.76794,-0.36718 -3.14776,-0.60068 -3.14776,-1.93511 v -1.51755 h 24.27687 c 22.57325,0 24.29915,0.0786 24.59428,1.12 0.17457,0.616 0.51304,4.072 0.75216,7.68 l 0.43476,6.56 h -1.6052 c -1.39267,0 -1.70473,-0.41487 -2.35689,-3.1334 -0.41343,-1.72337 -1.40404,-3.74625 -2.20136,-4.49528 -0.79731,-0.74904 -2.42987,-1.64301 -3.62791,-1.9866 -1.19804,-0.3436 -5.85216,-0.62472 -10.34249,-0.62472 h -8.16422 v 8.73282 8.73283 l 4.44739,-0.37286 c 2.44606,-0.20507 5.00777,-0.67276 5.69268,-1.03931 0.68492,-0.36655 1.56359,-1.57952 1.95261,-2.69547 0.38903,-1.11596 0.70732,-2.86917 0.70732,-3.89602 0,-1.65917 0.19593,-1.84447 1.76,-1.6645 l 1.76,0.20251 0.17412,12 0.17412,12 h -1.93412 c -1.69986,0 -1.93412,-0.22099 -1.93412,-1.8245 0,-1.00347 -0.30669,-2.70427 -0.68154,-3.77956 -0.40936,-1.1743 -1.36782,-2.21531 -2.4,-2.60672 -0.94515,-0.35842 -3.51846,-0.83192 -5.71846,-1.05223 l -4,-0.40055 0.0361,7.87178 c 0.0198,4.32948 0.37987,8.87227 0.8,10.09509 0.42062,1.22425 1.48284,2.58606 2.36387,3.03057 0.88,0.44399 2.824,0.8115 4.32,0.81669 2.59346,0.009 2.72,0.0988 2.72,1.92943 v 1.92 h -16 z m 37.16251,0 h -12.84251 v -1.94806 c 0,-1.18718 0.31247,-1.90747 0.8,-1.84416 0.44,0.0571 1.7139,0.0698 2.83089,0.028 1.19634,-0.0447 2.89043,-0.79908 4.12256,-1.83583 1.43002,-1.20327 3.44338,-4.59429 6.36483,-10.72 2.35024,-4.928 4.8701,-10.256 5.59968,-11.84 0.72959,-1.584 3.8985,-8.352 7.04203,-15.04 5.32814,-11.33588 5.83163,-12.16 7.4291,-12.16 1.60643,0 2.11409,0.86055 8.1174,13.76 3.52209,7.568 7.00188,15.056 7.73287,16.64 0.73098,1.584 2.85544,6.048 4.72102,9.92 1.86557,3.872 3.77168,7.48521 4.23579,8.02937 0.46411,0.54415 1.55591,1.48015 2.42624,2.08 1.13322,0.78104 2.89595,1.09063 6.20988,1.09063 2.54512,0 5.32928,-0.31976 6.18703,-0.71057 0.85774,-0.39082 1.9368,-1.47082 2.39789,-2.4 0.59186,-1.1927 0.9132,-6.00402 1.0929,-16.36366 0.14,-8.07082 0.0552,-16.53516 -0.18832,-18.80963 -0.3299,-3.08054 -0.82052,-4.51305 -1.92337,-5.61591 -0.96988,-0.96988 -2.60452,-1.62961 -4.73946,-1.91282 -2.88079,-0.38213 -3.25896,-0.60839 -3.25896,-1.94984 v -1.51755 h 23.68 23.68 l 0.004,2.4 c 0.002,1.32 0.1908,4.80189 0.4193,7.73752 l 0.41546,5.33753 -1.51383,-0.21753 c -1.17245,-0.16847 -1.69793,-0.8555 -2.33026,-3.04666 -0.44904,-1.55602 -1.44712,-3.50046 -2.21795,-4.32097 -0.77083,-0.82051 -2.43089,-1.77779 -3.68903,-2.12729 -1.2583,-0.34951 -5.52769,-0.63707 -9.48769,-0.63903 l -7.2,-0.004 v 8.73282 8.73283 l 4.44739,-0.37286 c 2.44606,-0.20507 5.00777,-0.67276 5.69268,-1.03931 0.68492,-0.36655 1.56359,-1.57952 1.95261,-2.69547 0.38903,-1.11596 0.70732,-2.85004 0.70732,-3.85351 0,-1.51947 0.2675,-1.8245 1.6,-1.8245 h 1.6 v 12.16 12.16 h -1.6 c -1.3325,0 -1.6,-0.30503 -1.6,-1.8245 0,-1.00347 -0.30669,-2.70427 -0.68154,-3.77956 -0.40936,-1.1743 -1.36782,-2.21531 -2.4,-2.60672 -0.94515,-0.35842 -3.51846,-0.83192 -5.71846,-1.05223 l -4,-0.40055 v 7.09233 c 0,4.66793 0.30964,7.83341 0.90582,9.26027 0.4982,1.19236 1.48727,2.47911 2.19792,2.85945 0.71253,0.38133 4.62159,0.69151 8.71474,0.69151 5.06516,0 8.13405,-0.29725 9.66258,-0.93591 1.61177,-0.67344 2.58923,-1.70548 3.48539,-3.68 0.68499,-1.50925 1.25176,-3.24809 1.2595,-3.86409 0.01,-0.76802 0.52322,-1.12 1.63425,-1.12 h 1.6202 l -0.39268,6.88 c -0.21597,3.784 -0.50402,7.24 -0.64011,7.68 -0.19453,0.62893 -8.88259,0.8 -40.63004,0.8 h -40.38259 l 0.20251,-1.76 c 0.1862,-1.61829 0.47178,-1.78708 3.5468,-2.09629 1.83935,-0.18495 3.67535,-0.66735 4.08,-1.072 0.40464,-0.40464 0.73571,-1.46685 0.73571,-2.36047 0,-0.89362 -0.82009,-3.50722 -1.82241,-5.808 l -1.82242,-4.18324 h -10.1328 -10.13281 l -1.63809,3.68 c -0.90095,2.024 -1.78202,4.72266 -1.95792,5.99702 -0.21414,1.55134 -0.0313,2.49931 0.55331,2.86861 0.48022,0.30336 2.31314,0.7007 4.07314,0.88297 2.91875,0.30227 3.2178,0.48609 3.40251,2.0914 l 0.20251,1.76 z m 18.23271,-22.4 c 4.02863,0 7.32478,-0.13487 7.32478,-0.29973 0,-0.16484 -1.62074,-3.75206 -3.60164,-7.97159 l -3.60164,-7.67186 -2.2238,4.61159 c -1.2231,2.53637 -2.89851,6.12359 -3.72315,7.97159 l -1.49933,3.36 z m -144.051468,-7.04 h -9.936251 l 0.176251,-10.00114 0.176252,-10.00114 9.7598,-0.0789 9.7598,-0.0789 2e-4,10.08 2e-4,10.08 z m 30.416252,0 h -10.24 v -9.8887 -9.88871 l 9.975168,-0.19129 c 5.486336,-0.10522 10.094336,-0.0713 10.24,0.0754 0.145658,0.14666 0.264832,4.68266 0.264832,10.08 v 9.81333 z"
         id="path84"
         inkscape:connector-curvature="0" />
      <path
         style="fill:#460034;fill-opacity:1;stroke-width:0.397383"
         d="m 43.787829,314.12482 c -13.553926,9.44363 -26.736275,19.41173 -40.1318049,29.07881 0.085542,17.31609 -0.7124148,34.64838 -0.1976064,51.95338 -0.052625,2.8694 4.0216707,0.94239 5.9627647,1.49464 3.6054716,1.16296 2.3986816,-2.48634 2.5589296,-4.7686 0,-14.67342 0,-29.34684 0,-44.02026 11.99681,-7.29744 23.878256,-14.80766 36.111407,-21.70161 12.125503,6.78517 23.860748,14.24541 35.814919,21.32596 0,16.38817 0,32.77634 0,49.16451 2.923456,0 5.846911,0 8.770367,0 -0.182515,-17.88377 0.269532,-35.78857 -0.537862,-53.65758 -13.977245,-10.10113 -27.688775,-20.5905 -41.964271,-30.26708 -2.116426,-2.32193 -4.041862,-0.16096 -5.997932,1.13888 l -0.33077,0.22024 z"
         id="path98"
         inkscape:connector-curvature="0" />
      <path
         style="fill:#460034;fill-opacity:1;stroke-width:0.281825"
         d="m 105.32505,344.60983 c -0.24795,1.24967 0.53149,2.1284 1.77132,2.11534 2.75828,0.51102 6.28782,0.96167 7.29277,4.08316 1.18999,3.71913 0.69854,7.7559 0.96457,11.61314 0.0141,8.31414 0.36173,16.68055 -0.60293,24.95366 -0.40982,3.48802 -3.98977,5.57734 -7.29278,5.18569 -1.26872,-0.24739 -2.41427,0.68295 -2.1291,2.02176 -0.68276,2.34727 0.89021,2.45561 2.8144,2.20231 9.76994,0 19.53987,0 29.3098,0 -0.18872,-1.34499 0.70536,-4.02486 -1.42013,-4.13655 -2.76633,-0.21336 -6.59108,-0.16855 -7.63074,-3.39566 -1.64115,-5.52508 -0.89428,-11.41143 -1.09483,-17.0961 -0.39688,-2.06306 2.53918,-0.54147 3.81082,-0.73757 2.6976,0.56368 6.52076,0.31193 7.82823,3.2839 0.8505,1.78542 0.53289,3.942 1.23903,5.70916 1.1372,0.11981 3.06846,0.67356 3.74541,0.0925 -0.18702,-7.99537 -0.0905,-16.08712 -0.50882,-24.02396 -1.17017,-0.14641 -3.47733,-0.89575 -3.61088,0.97318 -0.28666,2.68822 -0.54819,6.66585 -3.82171,7.33846 -2.83337,0.74006 -5.77774,0.82804 -8.68208,1.05904 0,-5.78291 0,-11.56583 0,-17.34875 6.08761,0.27548 12.25161,-0.0402 18.28615,0.8152 2.94347,0.82199 5.03356,3.32462 5.71885,6.2518 0.58023,1.24617 0.52982,3.43822 2.44252,3.31704 2.4302,1.06631 1.66776,-1.28449 1.60122,-2.87593 -0.37376,-3.94811 -0.25989,-8.04925 -1.37389,-11.86429 -3.30342,-1.02461 -6.9312,-0.56502 -10.36747,-0.79176 -12.76257,-0.15487 -25.52653,-0.0868 -38.28973,-0.12307 0,0.45944 0,0.91887 0,1.3783 z"
         id="path100"
         inkscape:connector-curvature="0" />
      <path
         style="fill:#460034;fill-opacity:1;stroke-width:0.281825"
         d="m 179.76484,340.99785 c -2.2791,0.58758 -2.66476,3.46996 -3.89381,5.15321 -4.26588,8.05587 -7.76636,16.47811 -11.75739,24.67346 -3.00734,6.37 -5.8988,12.86225 -9.72461,18.78649 -1.66158,2.52197 -4.74444,3.13014 -7.55369,3.01751 -1.87882,0.3371 -0.98502,2.86147 -1.20931,4.15637 8.57793,-0.0677 17.17256,0.16488 25.73965,-0.21137 0.10094,-1.38376 -0.0909,-3.72583 -1.97333,-3.69069 -1.97927,-0.68775 -4.72942,-0.14862 -6.13519,-1.94801 -0.39666,-3.08347 1.37484,-6.01333 2.38269,-8.85226 0.56798,-1.80794 1.25021,-3.44223 3.44921,-2.77082 5.95264,0 11.90528,0 17.85791,0 1.215,3.5982 3.55063,7.07769 3.38465,10.98457 -0.464,2.20611 -3.36424,1.87906 -5.05853,2.35974 -1.38356,-0.0198 -3.19668,0.548 -3.05384,2.26285 -0.89839,2.45217 1.71569,1.60718 3.28501,1.73501 25.47679,0.0377 50.96457,0.28727 76.43229,-0.49189 2.06041,0.0717 1.2941,-2.69846 1.61209,-3.98195 0.21733,-3.68366 0.64451,-7.43773 0.66517,-11.08491 -1.36861,-0.30029 -3.32864,-0.14447 -3.52116,1.61114 -0.85943,3.28562 -2.62475,7.26939 -6.52436,7.50524 -5.34278,0.57593 -10.7796,0.41301 -16.11576,-0.11889 -3.31771,-2.19282 -3.04839,-6.6769 -3.21808,-10.17537 -0.10265,-2.95502 -0.15952,-5.91144 -0.24144,-8.86708 3.5152,0.40714 7.29849,0.34929 10.53376,1.89791 2.19051,1.63644 1.84473,4.68954 2.47313,7.03351 0.68767,1.01085 2.11286,0.67552 3.14686,0.73925 0,-8.17293 0,-16.34586 0,-24.51878 -1.20951,0.0572 -3.48535,-0.45669 -3.32016,1.49794 -0.52475,2.31851 -0.52898,5.59367 -2.96421,6.78672 -3.15762,0.99865 -6.50257,1.10766 -9.77965,1.36454 0,-5.76016 0,-11.52033 0,-17.28049 5.77001,0.19193 11.66147,-0.24405 17.33334,0.96987 3.13086,1.14994 4.55225,4.32834 5.52228,7.26869 0.44819,1.66948 2.20115,2.16431 3.7218,2.28969 -0.44882,-5.27669 -0.94694,-10.56119 -0.93135,-15.86091 -15.87614,0 -31.75228,0 -47.62843,0 -0.21042,1.42783 0.006,3.54765 1.91113,3.52281 2.98448,0.36519 6.82227,1.2902 7.52341,4.73763 1.0683,4.82171 0.49981,9.83841 0.69822,14.74297 -0.1352,7.47474 0.2336,15.02179 -0.86721,22.43482 -0.57943,2.75232 -3.55274,3.93589 -6.11648,3.70225 -3.51522,-0.10766 -7.86212,0.83726 -10.3945,-2.31019 -3.37955,-4.67994 -5.46378,-10.16642 -8.07501,-15.29206 -4.93303,-10.16945 -9.34792,-20.5918 -14.53983,-30.63276 -0.74757,-1.1899 -1.38466,-3.13056 -3.07527,-3.14576 z m -2.79954,17.97185 c 2.46901,4.80777 4.80355,9.78658 6.77866,14.79031 -4.60329,0.29031 -9.2948,0.31707 -13.88098,-0.06 2.12819,-4.89352 4.23682,-9.84069 6.82545,-14.50903 0.0758,-0.0702 0.15146,-0.23621 0.27687,-0.22128 z"
         id="path102"
         inkscape:connector-curvature="0" />
      <path
         style="fill:#460034;fill-opacity:1;stroke-width:0.281825"
         d="m 304.38379,340.70887 c -2.2148,-0.0345 -2.58425,2.64619 -3.85748,3.80464 -3.39441,-1.13782 -6.68494,-2.91804 -10.37744,-2.88155 -3.82206,-0.007 -7.99145,-0.45026 -11.31593,1.84892 -4.45878,2.49266 -8.5948,7.23257 -7.65001,12.68928 -0.0155,4.99294 2.53709,9.86986 6.8087,12.51046 6.53218,4.12376 13.95289,6.77072 20.16614,11.40009 3.27808,2.55503 3.91714,8.1937 0.30054,10.74623 -4.63295,3.03127 -10.89625,1.85062 -15.42277,-0.83227 -4.67712,-2.47032 -6.95758,-7.5696 -8.23127,-12.44599 -0.47086,-1.52442 -2.42481,-1.67981 -3.76611,-1.61884 0,7.51534 0,15.03067 0,22.546 1.69494,0.31499 3.50017,-0.28955 4.15362,-1.99919 0.55897,-0.9552 1.2913,-3.04827 2.71244,-1.82738 3.4696,1.61745 6.91078,3.89825 10.91919,3.50677 4.51665,-0.14921 9.57598,0.59181 13.3929,-2.40924 4.44505,-2.48882 7.74745,-7.05208 7.8959,-12.24952 0.44185,-3.96736 -0.0868,-8.35439 -3.09677,-11.26859 -4.44795,-5.05366 -11.11651,-7.14015 -16.86145,-10.30052 -3.70278,-2.08639 -8.68269,-3.84551 -9.74735,-8.47663 0.008,-3.28631 3.29546,-5.74765 6.30198,-6.3284 6.05432,-1.19437 12.2228,3.03832 13.96947,8.82781 0.83795,2.08339 1.73301,5.07518 4.52566,4.93548 1.12748,-0.46453 0.19319,-3.30717 0.49889,-4.71957 0,-5.15505 0,-10.3101 0,-15.46515 -0.43958,0.004 -0.87944,-0.008 -1.31885,0.007 z"
         id="path104"
         inkscape:connector-curvature="0" />
      <path
         style="fill:#9fac7e;fill-opacity:1;stroke-width:0.281825"
         d="m 22.750321,385.12053 c 0.166232,3.63029 -0.296713,7.37777 0.452461,10.93448 1.530111,0.81719 3.564491,0.18518 5.269357,0.4332 4.762387,0.0552 9.525172,0.0577 14.287758,0.0853 0,-6.66986 0,-13.33972 0,-20.00958 -6.669859,0 -13.339717,0 -20.009576,0 0,2.85219 0,5.70439 0,8.55658 z"
         id="path106"
         inkscape:connector-curvature="0" />
      <path
         style="fill:#9b7b86;fill-opacity:1;stroke-width:0.281825"
         d="m 63.121755,376.6311 c -3.452357,0.0246 -6.904713,0.0492 -10.35707,0.0738 0.154735,6.36041 -0.135856,12.76687 0.397968,19.0986 0.85624,1.23075 2.835734,0.3441 4.102426,0.66383 5.404211,0.079 10.809152,0.0744 16.213745,0.10624 0,-6.67225 0,-13.34449 0,-20.01673 -3.452356,0.0248 -6.904713,0.0495 -10.357069,0.0743 z"
         id="path108"
         inkscape:connector-curvature="0" />
      <path
         style="fill:#673d53;fill-opacity:1;stroke-width:0.281825"
         d="m 32.966478,346.88831 c -3.274742,0.1322 -6.704909,0.0351 -9.889196,0.34898 -0.24259,6.69498 -0.282418,13.39593 -0.416683,20.09379 6.699766,0 13.399532,0 20.099298,0 0,-6.88325 0,-13.76649 0,-20.64974 -3.264473,0.069 -6.528946,0.13798 -9.793419,0.20697 z"
         id="path110"
         inkscape:connector-curvature="0" />
    </g>
  </g>
</svg>
